# xmcd
#
# Track frame offsets: 
#        150
#        12532
#        31202
#        44616
#        63051
#        77552
#        96986
#        118830
#        137085
#        154214
#
# Disc length: 2306 seconds
#
# Revision: 2
# Processed by: cddbd v1.5.2PL0 Copyright (c) Steve Scherf et al.
# Submitted via: ExactAudioCopyFreeDBPlugin 1.0
#
DISCID=8109000a
DTITLE=Clay Aiken - Steadfast
DYEAR=2012
DGENRE=Pop
TTITLE0=There's a Kind of Hush
TTITLE1=Bring Back My Love
TTITLE2=Breaking Up Is Hard to Do
TTITLE3=Crying (Duet with Linda Eder)
TTITLE4=It's Only Make Believe
TTITLE5=Misty
TTITLE6=Unchained Melody
TTITLE7=It's Impossible
TTITLE8=Who's Sorry Now
TTITLE9=Moon River (feat. Vince Gill)
EXTD=
EXTT0=
EXTT1=
EXTT2=
EXTT3=
EXTT4=
EXTT5=
EXTT6=
EXTT7=
EXTT8=
EXTT9=
PLAYORDER=
